<svg xmlns="http://www.w3.org/2000/svg" width="15" height="15" viewBox="0 0 15 15"><defs><style>.a{fill:#537fff;}</style></defs><g transform="translate(-18 -0.003)"><path class="a" d="M14.667,13.038,11.575,9.946a6.174,6.174,0,0,0,1.118-3.6,6.234,6.234,0,0,0-.5-2.465A6.215,6.215,0,0,0,8.812.5,6.325,6.325,0,0,0,3.881.5,6.215,6.215,0,0,0,.5,3.884a6.325,6.325,0,0,0,0,4.931,6.216,6.216,0,0,0,3.38,3.38,6.236,6.236,0,0,0,2.465.5,6.174,6.174,0,0,0,3.6-1.118l3.092,3.083a1.071,1.071,0,0,0,.811.343,1.154,1.154,0,0,0,.82-1.965ZM9.2,9.2a3.889,3.889,0,0,1-2.853,1.186A3.889,3.889,0,0,1,3.493,9.2,3.889,3.889,0,0,1,2.308,6.349,3.889,3.889,0,0,1,3.493,3.5,3.889,3.889,0,0,1,6.346,2.311,3.89,3.89,0,0,1,9.2,3.5a3.889,3.889,0,0,1,1.186,2.853A3.889,3.889,0,0,1,9.2,9.2Z" transform="translate(18)"/></g></svg>